HIERARCHY
ROOT Hips
{
	OFFSET -0.179506 -22.333345 2.821913
	CHANNELS 6 Xposition Yposition Zposition Zrotation Yrotation Xrotation 
	JOINT LeftUpLeg
	{
		OFFSET 6.951974 -9.140623 -0.681533
		CHANNELS 3 Zrotation Yrotation Xrotation
		JOINT LeftLeg
		{
			OFFSET 3.427654 -37.519855 -0.449580
			CHANNELS 3 Zrotation Yrotation Xrotation
			JOINT LeftFoot
			{
				OFFSET -1.359570 -39.796059 -4.369333
				CHANNELS 3 Zrotation Yrotation Xrotation
				JOINT LeftToe
				{
					OFFSET 2.635814 -5.579078 11.928840
					CHANNELS 3 Zrotation Yrotation Xrotation
					End Site
					{
						OFFSET 0.000000 0.000000 0.000000
					}
				}
			}
		}
	}
	JOINT RightUpLeg
	{
		OFFSET -6.767048 -9.052170 -0.431982
		CHANNELS 3 Zrotation Yrotation Xrotation
		JOINT RightLeg
		{
			OFFSET -3.829005 -38.256897 -0.885003
			CHANNELS 3 Zrotation Yrotation Xrotation
			JOINT RightFoot
			{
				OFFSET 1.577377 -39.841461 -4.231180
				CHANNELS 3 Zrotation Yrotation Xrotation
				JOINT RightToe
				{
					OFFSET -2.537174 -4.814398 12.334795
					CHANNELS 3 Zrotation Yrotation Xrotation
					End Site
					{
						OFFSET 0.000000 0.000000 0.000000
					}
				}
			}
		}
	}
	JOINT Spine
	{
		OFFSET -0.253288 10.896323 -2.669631
		CHANNELS 3 Zrotation Yrotation Xrotation
		JOINT Spine1
		{
			OFFSET 0.548704 13.518043 0.109247
			CHANNELS 3 Zrotation Yrotation Xrotation
			JOINT Spine2
			{
				OFFSET 0.145701 5.292222 2.542457
				CHANNELS 3 Zrotation Yrotation Xrotation
				JOINT Neck
				{
					OFFSET -0.277840 21.387037 -4.285703
					CHANNELS 3 Zrotation Yrotation Xrotation
					JOINT Head
					{
						OFFSET 0.515184 6.496960 5.134897
						CHANNELS 3 Zrotation Yrotation Xrotation
						End Site
						{
							OFFSET 0.000000 0.000000 0.000000
						}
					}
				}
				JOINT LeftShoulder
				{
					OFFSET 7.884473 12.174932 -3.408961
					CHANNELS 3 Zrotation Yrotation Xrotation
					JOINT LeftArm
					{
						OFFSET 9.097692 3.046888 -0.886815
						CHANNELS 3 Zrotation Yrotation Xrotation
						JOINT LeftForeArm
						{
							OFFSET 25.961220 -1.277207 -2.745643
							CHANNELS 3 Zrotation Yrotation Xrotation
							JOINT LeftHand
							{
								OFFSET 24.923361 0.898606 -0.117091
								CHANNELS 3 Zrotation Yrotation Xrotation
								End Site
								{
									OFFSET 0.000000 0.000000 0.000000
								}
							}
						}
					}
				}
				JOINT RightShoulder
				{
					OFFSET -8.175920 11.883285 -3.861528
					CHANNELS 3 Zrotation Yrotation Xrotation
					JOINT RightArm
					{
						OFFSET -9.601238 3.255117 -0.914307
						CHANNELS 3 Zrotation Yrotation Xrotation
						JOINT RightForeArm
						{
							OFFSET -25.374195 -1.332924 -2.140099
							CHANNELS 3 Zrotation Yrotation Xrotation
							JOINT RightHand
							{
								OFFSET -25.529810 0.777228 -0.555919
								CHANNELS 3 Zrotation Yrotation Xrotation
								End Site
								{
									OFFSET 0.000000 0.000000 0.000000
								}
							}
						}
					}
				}
			}
		}
	}
}
MOTION
Frames: 17
Frame Time: 0.033333
-20.702085 117.002640 136.685226 -3.252296 36.667686 -11.639388 5.110780 -2.730998 -2.530569 -12.507225 -10.841667 51.014412 3.213440 10.600844 -13.571134 0.332697 -0.532515 -0.141125 -3.689756 0.912435 -5.026042 2.159668 9.886185 11.133884 2.006332 -6.168926 -14.277316 0.274195 -0.023520 -1.204220 1.617032 -0.145162 13.490603 0.968290 -1.850157 -6.777157 2.062987 -1.734865 9.609386 -0.049983 4.949088 1.228815 2.230205 10.138554 0.290443 -20.685164 1.798509 0.849965 -54.203309 -4.192664 11.320521 -2.789295 -10.943543 4.063365 5.136096 -3.944975 -10.532657 17.270750 0.766733 -0.496840 57.823431 0.254969 13.320129 -1.228603 16.234682 -2.381439 2.630163 1.598044 -11.519975 
-20.784576 116.728012 138.131271 -2.458919 40.757411 -12.515200 6.810364 -2.102103 -13.466792 -11.604974 -2.117693 64.737295 3.798139 10.733141 -11.530480 0.050742 -0.616719 -0.068420 -4.397160 -0.761050 -1.504209 1.816528 8.582618 10.387117 0.457664 -6.824984 -15.983229 0.111197 -0.185956 -1.606971 2.009311 1.745495 16.505528 1.172526 -2.299851 -6.848476 1.889355 -0.907894 9.672385 -0.600124 5.242781 0.809256 2.011031 10.631493 -0.891494 -20.144342 1.505925 -0.144064 -49.231243 -5.734284 7.578172 -0.533121 -15.346677 -1.665606 8.031714 -2.534125 -12.616683 17.795706 1.655274 -0.677445 55.288503 2.296499 12.500167 -2.565201 20.906204 -2.722346 2.538939 0.928801 -10.263174 
-21.588434 114.634933 138.683151 -1.646704 45.741697 -12.953034 9.522797 -1.983590 -25.474155 -10.237322 4.966712 78.957311 4.466635 9.581016 -10.067437 0.006594 -0.817491 -0.186901 -5.475972 -2.118463 0.408752 1.929217 6.914692 10.606691 -2.367339 -8.244258 -22.835633 0.095207 -0.134251 -2.013467 1.492770 3.771671 19.511758 1.886710 -3.041100 -7.351587 1.950850 -0.161931 9.574031 -1.229626 5.080138 0.555585 2.384255 11.428676 -1.754502 -19.272448 1.281047 -1.415345 -44.436083 -7.008992 4.089512 3.231357 -22.063612 -8.103199 10.927623 -1.827400 -16.153199 18.115260 2.283759 -1.240890 52.016346 4.280664 12.040302 -4.437514 27.210604 -2.939411 3.115794 1.272743 -9.826749 
-22.027227 114.859314 139.614502 0.680650 50.710242 -12.154247 12.297965 -0.040034 -35.834099 -8.643705 12.411218 88.387661 4.127838 7.144274 -9.986296 -0.001483 -1.000346 -0.368515 -7.556863 -4.373460 3.293356 1.804253 5.164948 9.529958 -1.969752 -8.459280 -22.937865 0.251536 -0.121408 -2.296986 0.529461 5.552066 21.438443 2.302878 -3.902634 -7.771925 2.060177 0.282924 9.398256 -1.663375 4.316928 0.755552 3.924070 12.494808 -1.998154 -18.403190 1.593353 -2.349389 -39.189315 -7.181115 0.339081 9.465408 -32.265940 -15.739224 15.266678 -1.549114 -17.652690 17.400433 2.469016 -1.598017 47.563748 5.647171 10.399640 -7.250529 36.414559 -4.536066 2.046130 1.758234 -8.051574 
-22.031139 113.207504 141.493713 4.578193 54.150337 -9.329707 14.498620 2.452338 -43.882467 -5.539149 18.752015 97.529872 3.727234 5.810723 -10.998637 -0.132832 -1.066637 -0.130469 -9.785090 -6.078525 6.089312 1.348192 4.075007 7.942940 -3.245045 -8.699499 -31.019746 0.261321 -0.054301 -2.486106 -0.517828 7.034549 22.634604 2.116601 -4.241591 -7.916670 1.985102 0.630911 9.465133 -1.928963 3.636460 0.948019 4.919261 13.896638 -2.098629 -16.984010 3.023898 -3.034407 -34.015567 -6.249586 -3.306571 20.990247 -45.037420 -26.573062 22.048357 -1.538515 -19.357819 15.775876 1.729237 -1.703149 42.343684 5.763893 7.722697 -13.119321 48.049932 -10.101554 -0.685550 3.024779 -9.697173 
-21.805490 113.564209 143.391464 7.886436 57.759135 -6.245113 16.130960 4.388999 -50.976713 -2.297474 21.870414 105.503648 3.980268 5.840979 -13.235812 -0.387399 -0.899618 0.214819 -10.725241 -7.187456 8.133644 0.673984 3.739642 7.056416 -2.563852 -9.658572 -30.698939 0.285359 0.089212 -2.862374 -1.197970 8.296654 23.511757 1.876539 -4.329369 -9.494137 1.861146 0.838835 10.151250 -2.329268 3.304849 1.231681 4.896931 13.813906 -2.132572 -14.675704 4.415689 -3.997421 -28.632812 -5.946955 -7.573048 39.991916 -54.615073 -43.473567 28.170856 -2.474028 -20.121692 13.553589 0.293927 -1.728463 35.849540 4.100622 3.595723 -24.263296 59.397224 -20.795954 -3.151631 5.214424 -14.451380 
-21.076111 111.948364 145.339417 11.612204 60.346296 -2.325685 17.359544 6.020474 -56.787701 0.233256 24.216228 111.509113 4.013082 5.908567 -13.814246 -0.731712 -0.594926 0.524250 -12.034613 -8.423341 9.901195 0.420858 4.307096 6.100148 -2.826350 -10.097107 -33.777797 0.378493 0.123693 -3.071041 -1.844097 9.538619 24.100597 1.456873 -4.400430 -11.347330 1.761708 0.957275 11.086243 -2.732263 3.034863 1.935918 5.010507 13.710486 -1.646248 -12.080829 5.306081 -5.072190 -22.497760 -5.909575 -12.299229 62.612502 -56.666338 -64.307262 32.014795 -2.248428 -21.052844 11.269406 -1.087343 -1.777719 30.055050 2.306095 -0.851755 -36.445135 64.351904 -33.667167 -5.140443 6.023206 -19.112126 
-21.490435 112.306046 145.802521 14.560671 61.541575 -0.017389 18.401198 7.817269 -60.484558 1.737677 25.993572 115.848127 4.150740 6.262686 -13.768714 -1.003634 -0.422818 0.557709 -13.072102 -9.501379 11.284773 0.201479 4.973108 4.899828 -0.473692 -9.273313 -25.283642 0.508366 0.155852 -3.264155 -2.386793 10.640510 24.701151 1.131104 -4.330013 -12.803457 1.767832 1.102072 11.613131 -3.218766 3.237024 3.268647 4.840245 13.669227 -1.803606 -9.571155 5.804890 -6.357911 -16.395489 -5.468841 -16.719000 75.747021 -53.443550 -76.681845 35.469713 -2.406159 -20.351446 9.083517 -2.341347 -1.939539 25.581625 0.136038 -5.156074 -49.531086 65.247592 -48.009919 -8.581974 5.783383 -22.034374 
-21.827351 110.583206 148.144470 16.648306 63.635983 1.467034 19.025326 9.382169 -63.310074 2.057704 26.816209 118.225365 4.343833 5.842179 -13.526761 -1.117790 -0.305735 0.412612 -13.259744 -10.347330 12.996871 0.645826 6.470078 4.680884 -0.389796 -8.452377 -24.340793 0.668820 0.057585 -3.336355 -2.564172 11.439953 25.279550 0.943141 -4.700141 -14.268563 1.796585 0.995619 12.188702 -3.708993 3.994601 4.692281 4.474167 13.857851 -2.988507 -7.099924 6.057348 -7.348822 -9.905526 -3.413067 -20.746009 80.373366 -50.208389 -81.726097 35.874948 -4.106108 -17.071215 6.769506 -3.774128 -2.656947 22.441168 -2.093584 -10.500154 -66.381342 60.793785 -67.668334 -11.471519 5.616000 -22.962096 
-22.006039 110.763977 148.382645 18.281804 64.945126 4.238889 19.138690 10.375075 -64.534293 2.726857 26.829758 118.552645 4.592160 6.903672 -13.465964 -1.104515 -0.162657 0.165738 -13.656539 -10.541706 12.498541 0.780520 7.896269 4.288474 1.306582 -7.867904 -18.267611 0.736145 0.145811 -3.606008 -2.766623 12.046953 24.960178 0.807919 -5.055502 -14.993319 1.751963 0.973195 12.845435 -3.640336 4.522409 5.593384 4.249714 13.166938 -3.317439 -4.925008 6.303586 -7.691649 -5.562212 -0.642407 -22.863647 79.305366 -47.973373 -81.604549 35.340589 -4.318272 -15.512739 4.928186 -4.396238 -3.162664 18.856779 -3.203278 -15.790589 -76.677530 53.097537 -80.306615 -14.769776 4.980638 -24.774690 
-21.087946 110.868286 148.564575 19.517750 66.370922 6.418465 18.982725 10.384985 -63.501512 2.336581 26.743934 116.581165 4.470775 7.214712 -13.373665 -1.070154 -0.194653 0.094957 -13.925442 -10.694076 12.314724 0.826631 8.217954 4.648452 1.616728 -8.415147 -15.617192 0.846529 0.201499 -3.706532 -2.588724 11.914638 24.630031 0.668843 -5.083922 -15.429514 1.457992 0.983337 12.892513 -3.733897 4.836121 6.402405 3.738969 13.357208 -3.156694 -3.832761 6.848065 -7.664369 -3.559545 1.206156 -23.544703 76.511703 -47.446775 -80.093781 35.181797 -5.353551 -14.743084 3.531878 -5.122701 -3.569611 15.789440 -3.558521 -18.826681 -78.955298 49.236089 -84.959219 -16.674608 4.909976 -25.028793 
-20.684181 110.861008 148.481415 21.280302 68.134612 8.848572 18.238988 9.555841 -61.281563 1.400081 26.301444 111.314459 4.056394 7.943430 -12.217434 -1.038250 -0.245740 0.004676 -14.028948 -10.723544 12.237766 0.713747 7.681661 4.726867 1.770357 -9.087730 -14.452751 1.032748 0.163355 -3.709341 -2.151569 11.552939 24.134375 0.499863 -4.908817 -15.687961 1.299859 0.977197 12.893193 -4.012506 4.590953 6.844147 3.159959 13.324284 -2.760244 -3.432524 7.166707 -7.289287 -3.121860 1.943448 -23.311385 71.369822 -47.858299 -76.591707 35.519011 -5.331151 -15.763576 2.880920 -5.414925 -3.729947 14.093130 -3.328780 -19.810523 -75.934216 48.113418 -83.765234 -18.236828 4.560098 -24.947834 
-19.620323 110.743210 147.999924 21.384543 70.082719 9.746684 16.794576 8.470583 -58.037412 0.089883 25.487452 102.962451 3.557808 9.211814 -11.215467 -1.006700 -0.260240 -0.103399 -13.793085 -10.686646 12.453592 0.669922 6.616446 4.991935 2.167114 -9.560561 -14.020722 1.178855 0.091695 -3.680732 -1.433182 10.953242 23.556399 0.277872 -4.559668 -15.751662 1.172450 0.914677 13.106057 -4.029222 4.437524 7.014622 2.251073 12.822754 -1.940251 -3.776200 7.388066 -6.973602 -4.244314 1.384585 -22.237325 66.989199 -48.428188 -72.245026 35.955655 -5.114275 -16.370570 3.115340 -5.385824 -3.912887 14.118693 -2.279164 -19.538859 -70.143882 47.886730 -78.825632 -19.212766 4.096094 -25.015023 
-17.841475 110.459412 148.142395 20.466407 71.762195 9.572075 14.869720 7.545488 -52.592192 -1.981261 24.428299 90.973062 2.863984 10.396884 -9.871022 -0.790060 -0.413511 -0.316555 -13.191691 -10.736222 13.086500 0.697826 4.850567 5.750823 2.602637 -9.503933 -14.763522 1.255808 0.112667 -3.547328 -0.724265 10.258755 22.538513 0.152827 -4.029449 -15.055826 1.206455 0.929789 13.160984 -3.893281 4.391700 7.085767 1.473190 12.500193 -0.967561 -5.131462 7.617168 -6.386888 -7.148869 0.267239 -20.228310 63.477414 -49.705913 -68.084166 36.120561 -4.571662 -17.157950 4.586388 -5.103641 -4.128989 16.940671 -0.242639 -17.671613 -63.232473 48.251864 -71.721671 -19.236074 3.469567 -25.394163 
-15.527630 109.995712 147.708832 17.813017 73.284703 7.357016 12.617598 5.930435 -45.950687 -5.055347 21.452309 75.309582 2.135671 11.023734 -8.646206 -0.559399 -0.525441 -0.400612 -12.736574 -10.964523 13.960604 0.446341 1.863677 7.084999 3.510868 -8.316730 -15.755815 0.932183 0.157894 -3.128879 -0.015483 9.453917 21.752243 0.285602 -3.240771 -13.660692 1.326729 0.954994 12.459348 -3.476740 4.563595 6.772853 0.109833 12.267415 -0.650918 -7.508297 8.309042 -6.193909 -13.778913 -2.511586 -16.956723 57.648494 -51.351623 -60.839980 36.652968 -3.326104 -17.337789 7.459856 -4.674271 -4.649644 23.967734 3.376154 -12.545220 -50.782312 49.535861 -57.069416 -20.315017 1.745785 -22.650943 
-12.846284 109.337387 147.179321 12.812686 74.809962 3.257330 10.292781 4.801625 -38.376719 -6.965476 16.515953 57.421951 1.367846 11.959664 -7.715367 -0.241790 -0.722781 -0.384799 -12.002691 -10.972115 15.468178 0.623131 0.152443 7.032404 4.490134 -7.633114 -16.578879 0.635904 0.137845 -2.702482 0.994341 8.384053 21.017281 -0.036736 -2.516112 -12.473013 1.753502 1.155754 12.233534 -3.059373 5.012294 4.990036 0.059185 12.397975 1.346361 -10.895490 8.429990 -6.155941 -23.001026 -5.148865 -12.173081 50.355725 -51.741161 -51.454244 36.066333 -3.696920 -16.742697 11.586288 -3.090259 -4.747029 34.237713 6.852746 -5.263511 -34.638248 44.717514 -39.789063 -20.439391 2.171140 -17.944122 
-8.910283 108.575653 145.995422 8.170365 76.846879 0.258687 8.287278 3.864146 -32.126300 -6.380600 12.615978 41.571220 0.926048 12.436844 -7.214578 0.216360 -0.947741 -0.230655 -11.775359 -11.473507 17.030351 0.121834 -1.325578 6.682844 5.856968 -7.353263 -16.264681 0.697392 0.072738 -2.056036 1.684158 8.011231 19.907043 -0.551648 -1.859362 -11.296737 2.179808 1.251589 11.934099 -3.122849 5.046177 3.168930 0.416297 11.526087 2.824182 -13.916285 7.737396 -5.842078 -32.086799 -6.984038 -6.821698 34.473816 -48.467684 -36.155322 31.859846 -3.496354 -17.645882 14.615099 -0.531224 -4.206812 43.981697 8.678763 2.211315 -18.576967 32.672795 -27.069079 -18.156994 2.256017 -15.774794 
